<svg width="13" height="20" viewBox="0 0 13 20" fill="none" xmlns="http://www.w3.org/2000/svg">
<path fill-rule="evenodd" clip-rule="evenodd" d="M1.47356 0.0799767C1.28308 0.145948 1.13866 0.250181 0.731886 0.615329C0.108025 1.1753 0.0230559 1.30904 0.0214527 1.73317C0.0205861 1.96106 0.0425976 2.08823 0.102566 2.20216C0.158331 2.30819 1.54588 3.58806 4.41365 6.17892L8.64249 9.99931L4.40897 13.8195C1.11579 16.7911 0.155991 17.6788 0.0879636 17.8156C0.0295118 17.9332 0.000351039 18.0757 4.40187e-06 18.2455C-0.000862191 18.6463 0.125834 18.8443 0.727293 19.3824C1.15036 19.761 1.27468 19.8492 1.48431 19.9198C1.80031 20.0262 2.05041 20.0267 2.36927 19.9215C2.60945 19.8423 2.83502 19.6451 7.69851 15.2609C13.3168 10.1964 12.9966 10.5143 12.9966 9.99911C12.9966 9.48389 13.3168 9.80186 7.69851 4.73712C2.83259 0.350623 2.60958 0.155601 2.36927 0.0765375C2.05591 -0.0266012 1.7783 -0.025546 1.47356 0.0799767Z" fill="white" fill-opacity="0.7"/>
</svg>
