<svg width="12" height="10" viewBox="0 0 12 10" fill="none" xmlns="http://www.w3.org/2000/svg">
<path fill-rule="evenodd" clip-rule="evenodd" d="M0.680104 0.0399884C0.592192 0.072974 0.525537 0.12509 0.337793 0.307664C0.0498578 0.587651 0.0106412 0.654521 0.00990125 0.866583C0.00950128 0.980528 0.0196605 1.04412 0.0473381 1.10108C0.0730759 1.15409 0.713481 1.79403 2.03707 3.08946L3.98884 4.99965L2.03491 6.90977C0.514978 8.39557 0.0719959 8.83941 0.0405986 8.9078C0.0136209 8.96658 0.000162018 9.03787 2.03163e-06 9.12276C-0.000397934 9.32313 0.0580772 9.42213 0.335674 9.69119C0.530937 9.88049 0.588312 9.92461 0.685064 9.95988C0.830911 10.0131 0.946342 10.0134 1.09351 9.96076C1.20436 9.92115 1.30847 9.82253 3.55316 7.63047C6.14622 5.09818 5.99845 5.25717 5.99845 4.99956C5.99845 4.74194 6.14622 4.90093 3.55316 2.36856C1.30735 0.175312 1.20442 0.0778007 1.09351 0.0382687C0.948882 -0.0133006 0.820752 -0.012773 0.680104 0.0399884Z" fill="black"/>
<path fill-rule="evenodd" clip-rule="evenodd" d="M6.6801 0.0399884C6.59219 0.072974 6.52554 0.12509 6.33779 0.307664C6.04986 0.587651 6.01064 0.654521 6.0099 0.866583C6.0095 0.980528 6.01966 1.04412 6.04734 1.10108C6.07308 1.15409 6.71348 1.79403 8.03707 3.08946L9.98884 4.99965L8.03491 6.90977C6.51498 8.39557 6.072 8.83941 6.0406 8.9078C6.01362 8.96658 6.00016 9.03787 6 9.12276C5.9996 9.32313 6.05808 9.42213 6.33567 9.69119C6.53094 9.88049 6.58831 9.92461 6.68506 9.95988C6.83091 10.0131 6.94634 10.0134 7.09351 9.96076C7.20436 9.92115 7.30847 9.82253 9.55316 7.63047C12.1462 5.09818 11.9985 5.25717 11.9985 4.99956C11.9985 4.74194 12.1462 4.90093 9.55316 2.36856C7.30735 0.175312 7.20442 0.0778007 7.09351 0.0382687C6.94888 -0.0133006 6.82075 -0.012773 6.6801 0.0399884Z" fill="black"/>
</svg>
