<svg width="19" height="21" viewBox="0 0 19 21" fill="none" xmlns="http://www.w3.org/2000/svg">
<path fill-rule="evenodd" clip-rule="evenodd" d="M6.7687 0.0879803C6.45083 0.214928 6.11068 0.541411 5.95529 0.868688L5.82877 1.13525L5.80618 6.65064C5.78553 11.6889 5.77713 12.1755 5.70868 12.2755C5.52215 12.5479 5.60615 12.5379 3.27586 12.5633L1.12961 12.5867L0.847341 12.7215C0.539365 12.8687 0.272462 13.1336 0.104873 13.4585L0 13.6617V16.7933V19.925L0.104467 20.1443C0.242595 20.4344 0.506697 20.7097 0.800485 20.8699L1.03924 21H9.4887H17.9382L18.165 20.8761C18.4789 20.7047 18.7851 20.352 18.903 20.026L19 19.7579V10.5067V1.25561L18.903 0.987457C18.7851 0.661488 18.4789 0.308783 18.165 0.137338L17.9382 0.0134761L12.4709 0.00384784C7.09412 -0.0056405 6.99968 -0.00423885 6.7687 0.0879803ZM17.8603 0.508506C18.073 0.581094 18.3633 0.860182 18.4638 1.08851C18.5426 1.26734 18.5462 1.67613 18.5462 10.5067C18.5462 19.4008 18.5431 19.7448 18.4623 19.925C18.4162 20.0278 18.3099 20.1792 18.2261 20.2615C17.9037 20.5778 18.5973 20.5544 9.46489 20.5575L1.18916 20.5602L0.956055 20.4252C0.694166 20.2735 0.46115 19.9338 0.41321 19.6337C0.362061 19.3136 0.380226 14.1756 0.433408 13.9191C0.495085 13.6217 0.709981 13.324 0.973586 13.171L1.17479 13.0541L3.34364 13.0307L5.51249 13.0074L5.71581 12.8834C5.82765 12.8152 5.96605 12.6935 6.02343 12.6129C6.26752 12.2698 6.25803 12.5082 6.25803 6.72183C6.25803 2.8374 6.27221 1.31576 6.30945 1.20064C6.38251 0.974976 6.55218 0.754407 6.76472 0.608951C6.9132 0.50729 7.01721 0.478918 7.31457 0.458867C7.51627 0.445265 9.93616 0.438769 12.6921 0.444471C16.3228 0.45195 17.7462 0.469571 17.8603 0.508506ZM16.5691 15.6576C16.5312 15.6967 16.5149 15.9505 16.5149 16.4989V17.2841L16.0743 17.2888C15.3205 17.297 14.5009 17.2975 13.3633 17.2907L12.2675 17.2841V16.8662C12.2675 16.6363 12.2477 16.4356 12.2233 16.42C12.16 16.3796 10.4857 17.3915 10.4692 17.4802C10.4595 17.5324 10.6986 17.6991 11.2861 18.0501C11.743 18.3229 12.1499 18.5461 12.1905 18.5461C12.2524 18.5461 12.2662 18.4768 12.2771 18.1138L12.2901 17.6814L14.5832 17.6693L16.8763 17.6572V16.6854C16.8763 15.6895 16.8617 15.6015 16.6956 15.6015C16.6558 15.6015 16.5989 15.6267 16.5691 15.6576ZM2.82402 17.0738V18.1722H3.43717C4.04716 18.1722 4.05019 18.1716 4.03586 18.067C4.02208 17.9668 3.99962 17.9613 3.55826 17.9485L3.09512 17.9352V17.5396V17.1439H3.52438C3.95214 17.1439 3.95363 17.1435 3.95363 17.0271C3.95363 16.9106 3.95214 16.9102 3.52438 16.9102H3.09512V16.5596V16.2091H3.54697H3.99881V16.0922V15.9754H3.41141H2.82402V17.0738ZM6.26932 16.1933C6.23765 16.2065 6.21284 16.2972 6.21284 16.3999C6.21284 16.564 6.20114 16.583 6.09988 16.583C6.00951 16.583 5.98692 16.6064 5.98692 16.6999C5.98692 16.7933 6.00951 16.8167 6.09988 16.8167H6.21284V17.3566C6.21284 18.0929 6.27831 18.2189 6.66084 18.2189C6.85993 18.2189 6.88866 18.198 6.85785 18.076C6.8419 18.013 6.79558 17.9852 6.70621 17.9852C6.52068 17.9852 6.48395 17.8737 6.48395 17.3106V16.8167H6.68728C6.87402 16.8167 6.89061 16.8072 6.89061 16.6999C6.89061 16.5926 6.87402 16.583 6.68728 16.583H6.48395V16.3727C6.48395 16.1596 6.43935 16.1223 6.26932 16.1933ZM7.63886 16.5863C7.289 16.6484 7.03018 17.1091 7.08955 17.5641C7.13849 17.9392 7.38465 18.1761 7.75855 18.2079C8.0809 18.2352 8.31391 18.17 8.31391 18.0524C8.31391 17.9707 8.28603 17.9635 8.02871 17.978C7.87183 17.9869 7.68761 17.9702 7.61934 17.941C7.48103 17.8817 7.34245 17.6722 7.34245 17.5223C7.34245 17.4283 7.36432 17.4243 7.88466 17.4243H8.42687V17.2593C8.42687 16.7825 8.10114 16.5044 7.63886 16.5863ZM9.35315 16.5882C9.2786 16.6095 9.17196 16.6854 9.11616 16.7569L9.01472 16.8868L9.01449 16.7349C9.01431 16.6041 8.99859 16.583 8.90131 16.583H8.78835V17.3776V18.1722H8.9239H9.05945V17.7118C9.05945 17.4585 9.082 17.1845 9.10952 17.1027C9.15841 16.9577 9.3442 16.8167 9.48645 16.8167C9.53059 16.8167 9.55648 16.7745 9.55648 16.7026C9.55648 16.5591 9.52246 16.5399 9.35315 16.5882ZM4.39684 16.6181C4.38916 16.6374 4.38893 16.9949 4.39634 17.4127L4.40976 18.1722H4.54319H4.67658V17.6092C4.67658 17.0737 4.682 17.0406 4.7875 16.9315C4.92604 16.7882 5.1793 16.7759 5.30545 16.9064C5.40937 17.0139 5.45903 17.3633 5.43748 17.8357L5.42212 18.1724L5.5743 18.1723L5.72648 18.1722L5.70822 17.5763C5.68315 16.7588 5.57678 16.583 5.10718 16.583C4.96038 16.583 4.87362 16.6142 4.77042 16.704L4.63139 16.825V16.704C4.63139 16.6069 4.60961 16.583 4.5211 16.583C4.46041 16.583 4.40452 16.5988 4.39684 16.6181ZM8.04484 16.8847C8.10584 16.9478 8.15577 17.053 8.15577 17.1184C8.15577 17.2371 8.15468 17.2374 7.74911 17.2374C7.52545 17.2374 7.34245 17.2262 7.34245 17.2125C7.34245 17.1256 7.48338 16.8647 7.55283 16.8229C7.70221 16.7331 7.92537 16.7611 8.04484 16.8847Z" fill="black"/>
</svg>
