<svg width="19" height="21" viewBox="0 0 19 21" fill="none" xmlns="http://www.w3.org/2000/svg">
<path fill-rule="evenodd" clip-rule="evenodd" d="M1.53053 0.056152C0.824171 0.245388 0.220746 0.911179 0.0562163 1.68293C0.00716162 1.91294 0.000185612 3.01373 0.000185612 10.4989C0.000185612 19.925 -0.0150651 19.3096 0.230913 19.8277C0.406204 20.1968 0.773076 20.5869 1.11227 20.7647C1.26533 20.845 1.47906 20.9309 1.58719 20.9556C1.72627 20.9874 4.04598 21.0004 9.50942 21C18.0007 20.9993 17.4535 21.0156 17.9307 20.7493C18.4114 20.4811 18.8442 19.8465 18.9569 19.2449C19.0144 18.9377 19.0144 2.06013 18.9569 1.75291C18.8442 1.15132 18.4114 0.516709 17.9307 0.248464C17.4532 -0.0180162 18.0056 -0.00185343 9.47977 0.00130529C3.35487 0.00356151 1.68374 0.0150888 1.53053 0.056152ZM17.4779 0.985881C17.7716 1.1382 17.9394 1.31832 18.0784 1.6305L18.1998 1.90302V10.498V19.0931L18.1033 19.3206C17.9655 19.6453 17.8026 19.8308 17.5202 19.9844L17.2737 20.1186H9.49832H1.72296L1.47647 19.9844C1.19409 19.8308 1.03115 19.6453 0.893375 19.3206L0.796861 19.0931V10.4989V1.90474L0.892967 1.67912C1.06666 1.2714 1.3247 1.02793 1.70333 0.914502C1.83603 0.874792 3.54953 0.865398 9.57253 0.871469L17.2721 0.879182L17.4779 0.985881ZM4.64758 7.07514C3.99284 7.27008 3.45632 7.83738 3.25386 8.54862C3.17468 8.827 3.17167 8.89793 3.17167 10.4989C3.17167 12.0999 3.17468 12.1708 3.25386 12.4492C3.45884 13.1694 3.99714 13.7329 4.66346 13.9247C4.92959 14.0013 6.76758 14.0138 6.91419 13.9399C7.1388 13.8268 7.1808 13.4419 6.99019 13.2437C6.89549 13.1453 6.89044 13.1448 5.86827 13.1243L4.84146 13.1038L4.6314 12.9898C4.40034 12.8643 4.20357 12.6483 4.07373 12.3775C3.99874 12.2211 3.98779 12.1311 3.97603 11.5757L3.96282 10.9501H5.3588C6.89456 10.9501 6.95683 10.9414 7.0654 10.7093C7.09735 10.6409 7.12351 10.5463 7.12351 10.4989C7.12351 10.4515 7.09735 10.3569 7.0654 10.2885C6.95683 10.0564 6.89456 10.0477 5.3588 10.0477H3.96282L3.97603 9.42207C3.98779 8.86667 3.99874 8.77671 4.07373 8.62029C4.20357 8.34954 4.40034 8.13348 4.6314 8.00803L4.84146 7.89399L5.86827 7.87348C6.89044 7.85305 6.89549 7.85251 6.99019 7.7541C7.1808 7.55592 7.1388 7.17101 6.91419 7.05787C6.77322 6.98686 4.89597 7.00118 4.64758 7.07514ZM9.26448 7.05697C8.8061 7.17622 8.30739 7.63038 8.09629 8.1208C7.67829 9.09184 8.04494 10.2533 8.91786 10.7236C9.2214 10.8871 9.52058 10.9494 10.0043 10.9498C10.303 10.9501 10.3669 10.9638 10.5417 11.0647C11.1256 11.402 11.2566 12.251 10.8045 12.7689C10.5166 13.0986 10.5052 13.1013 9.27568 13.1243C8.07121 13.1469 8.04631 13.1521 7.95343 13.3978C7.8859 13.5765 7.93581 13.78 8.0774 13.9031C8.16791 13.9818 8.22583 13.9858 9.2768 13.9858C10.2695 13.9858 10.4049 13.9777 10.6169 13.9052C11.2156 13.7006 11.6522 13.1834 11.8172 12.4831C11.9999 11.7075 11.6958 10.8544 11.0733 10.3969C10.7674 10.172 10.4774 10.0863 9.90842 10.0524C9.54266 10.0306 9.36745 10.0022 9.26577 9.94801C9.07987 9.84899 8.81801 9.52122 8.76321 9.31894C8.64951 8.89948 8.75949 8.43306 9.0352 8.16547C9.30793 7.90072 9.33212 7.89604 10.5437 7.87348C11.6443 7.85297 11.6447 7.85292 11.7398 7.7541C11.9304 7.55592 11.8884 7.17101 11.6638 7.05787C11.5532 7.00212 9.47821 7.00134 9.26448 7.05697ZM14.1468 7.07514C13.4921 7.27008 12.9556 7.83738 12.7531 8.54862C12.6739 8.827 12.6709 8.89793 12.6709 10.4989C12.6709 12.0999 12.6739 12.1708 12.7531 12.4492C12.9581 13.1694 13.4964 13.7329 14.1627 13.9247C14.4288 14.0013 16.2668 14.0138 16.4134 13.9399C16.638 13.8268 16.68 13.4419 16.4894 13.2437C16.3947 13.1453 16.3897 13.1448 15.3675 13.1243L14.3407 13.1038L14.1307 12.9898C13.9 12.8645 13.7035 12.6491 13.5723 12.3775C13.4876 12.2019 13.4873 12.1953 13.4873 10.4989C13.4873 8.80247 13.4876 8.79586 13.5723 8.62029C13.7035 8.34872 13.9 8.13327 14.1307 8.00803L14.3407 7.89399L15.3675 7.87348C16.3897 7.85305 16.3947 7.85251 16.4894 7.7541C16.68 7.55592 16.638 7.17101 16.4134 7.05787C16.2725 6.98686 14.3952 7.00118 14.1468 7.07514Z" fill="black"/>
</svg>
