<svg width="14" height="13" viewBox="0 0 14 13" fill="none" xmlns="http://www.w3.org/2000/svg">
<path fill-rule="evenodd" clip-rule="evenodd" d="M9.01183 0.626917C7.70304 1.11398 7.52319 1.18686 7.11678 1.39482C6.71821 1.59876 6.07275 2.02718 5.78208 2.2807C4.95386 3.00307 4.36441 3.95439 4.23015 4.78549C4.21734 4.86486 4.19325 4.92981 4.17669 4.92981C4.16012 4.92981 3.65647 4.8311 3.05746 4.71044C2.45845 4.58979 1.95628 4.49108 1.94152 4.49108C1.90087 4.49108 1.49164 5.1738 1.30036 5.56074C0.870698 6.42978 0.660028 7.31668 0.704269 8.07024C0.770042 9.19105 1.44089 10.1965 2.62898 10.9548C3.49792 11.5094 4.54161 11.8634 5.7416 12.0104C6.14352 12.0596 7.76193 12.0808 8.28427 12.0436C9.78036 11.9371 11.0555 11.5068 12.0976 10.7567C12.5237 10.45 12.8213 10.1574 13.1035 9.76746C13.5805 9.10859 13.7725 8.49715 13.7306 7.77005C13.6748 6.80211 13.2293 6.00756 12.3576 5.32126C12.2212 5.21393 11.8946 4.99165 11.6317 4.82735C10.9159 4.37998 10.5759 4.07871 10.2522 3.60504C9.94102 3.14974 9.82047 2.78901 9.79605 2.23967C9.78025 1.88443 9.79129 1.7714 9.91194 1.05046C9.98526 0.6123 10.0429 0.252098 10.04 0.250019C10.0372 0.247918 9.57448 0.417547 9.01183 0.626917ZM8.79382 2.07225C8.79382 2.71648 8.83782 2.94446 9.05017 3.40088C9.40369 4.16068 9.82507 4.59293 10.9212 5.32022C11.8995 5.96929 12.2109 6.26967 12.4805 6.82425C12.6664 7.20694 12.7151 7.43945 12.7146 7.94324C12.7143 8.30619 12.7018 8.42058 12.6423 8.60557C12.3539 9.50193 11.6518 10.2333 10.5855 10.7483C10.4764 10.801 10.387 10.8379 10.387 10.8302C10.387 10.8225 10.417 10.7759 10.4535 10.7265C10.4901 10.6771 10.5611 10.5451 10.6112 10.433C10.6951 10.2451 10.7024 10.1978 10.7037 9.82518C10.7049 9.47302 10.6954 9.39797 10.6296 9.24123C10.4477 8.80732 10.2512 8.59707 9.62828 8.16949C9.19225 7.8702 9.13694 7.82272 8.99486 7.62568C8.87606 7.4609 8.82608 7.35667 8.78369 7.18515C8.72861 6.96218 8.72898 6.95555 8.83212 6.32037C8.88931 5.96832 8.93425 5.67855 8.93204 5.67645C8.92064 5.66571 7.31255 6.27763 7.12915 6.36252C6.85791 6.48806 6.31424 6.86131 6.1347 7.04526C5.86003 7.32667 5.59509 7.7486 5.53757 7.99616C5.52516 8.0496 5.49806 8.09328 5.47737 8.09321C5.45667 8.09315 5.21333 8.04756 4.93662 7.99189L4.43351 7.89068L4.35492 8.00932C3.66452 9.05165 3.52445 10.0092 3.96259 10.6912C4.00744 10.761 4.03551 10.8181 4.02505 10.8181C3.95525 10.8181 3.5002 10.5595 3.17459 10.3347C2.58819 9.92993 2.20717 9.50941 1.95799 8.99198C1.76084 8.58257 1.71747 8.37417 1.72049 7.85087C1.72361 7.30825 1.79673 6.92269 2.00039 6.37549C2.12586 6.03834 2.44229 5.37871 2.49558 5.34322C2.50994 5.33368 3.10972 5.44413 3.82843 5.58865C4.54714 5.73318 5.14021 5.84799 5.14635 5.84377C5.15249 5.83957 5.17104 5.6192 5.18757 5.35409C5.22215 4.80022 5.29219 4.51052 5.4936 4.08825C5.99983 3.02674 7.02843 2.17621 8.49195 1.60899C8.65798 1.54466 8.79382 1.49137 8.79382 1.4906C8.79382 1.48982 8.79382 1.75156 8.79382 2.07225ZM7.85441 7.51605C8.01037 7.93063 8.30124 8.2482 8.87076 8.62573C9.50549 9.04647 9.67551 9.2721 9.70754 9.73614C9.72015 9.91852 9.70979 10.0274 9.66749 10.1584C9.49811 10.6825 8.91071 11.1225 8.15168 11.2937C7.86611 11.3582 7.83012 11.3608 7.2174 11.3608C6.49318 11.3608 6.36838 11.3436 5.90931 11.1804C5.59681 11.0693 5.20448 10.814 5.02648 10.6059C4.66206 10.1798 4.62412 9.64789 4.90858 8.95348C4.95671 8.83602 5.01289 8.74012 5.03342 8.7404C5.05398 8.7407 5.37252 8.80226 5.7413 8.87724C6.11008 8.95221 6.41467 9.01161 6.41815 9.0092C6.42161 9.0068 6.44009 8.82313 6.45921 8.60104C6.47829 8.37895 6.51824 8.1349 6.54799 8.05869C6.69201 7.68962 7.09605 7.25939 7.51018 7.03406L7.72051 6.91964L7.75922 7.1428C7.78052 7.26553 7.82335 7.43349 7.85441 7.51605Z" fill="black"/>
</svg>
