<svg width="17" height="17" viewBox="0 0 17 17" fill="none" xmlns="http://www.w3.org/2000/svg">
<path fill-rule="evenodd" clip-rule="evenodd" d="M2.26035 0.0360054C1.41312 0.178623 0.639846 0.773232 0.258673 1.57513C-0.0227721 2.16728 0.000466836 1.54293 0.000466836 8.50725C0.000466836 14.407 0.00349201 14.7181 0.0632737 14.931C0.307041 15.7993 0.907505 16.4837 1.70818 16.8058C2.21366 17.0091 1.88368 16.9997 8.54317 16.9997C15.3928 16.9997 14.8463 17.019 15.4069 16.7573C16.2137 16.3807 16.7695 15.6813 16.9452 14.8213C16.994 14.5828 16.9999 13.8999 16.9999 8.50725C16.9999 1.87009 17.0102 2.21253 16.7954 1.69361C16.515 1.01609 15.9288 0.440447 15.2594 0.185326C14.7457 -0.0104685 15.0248 -0.00289656 8.47998 0.00151464C5.15868 0.00373761 2.35983 0.0192637 2.26035 0.0360054ZM14.6348 1.14801C15.043 1.23561 15.514 1.58229 15.7023 1.9339C15.914 2.32921 15.9017 1.89854 15.8917 8.54382L15.8827 14.603L15.8019 14.8053C15.6281 15.2405 15.2528 15.6082 14.8097 15.7775L14.6107 15.8535L8.61415 15.8627C4.68475 15.8688 2.55166 15.8599 2.42628 15.8369C1.79997 15.722 1.2498 15.1829 1.12123 14.5579C1.06677 14.2933 1.06784 2.67915 1.12233 2.42184C1.18923 2.10601 1.32092 1.87256 1.58002 1.6106C1.83056 1.35728 2.03617 1.23464 2.33811 1.15829C2.57414 1.09862 14.3587 1.08879 14.6348 1.14801ZM8.03796 2.6357C7.91121 2.71378 7.83259 2.8235 7.78615 2.98706C7.71358 3.24281 7.9087 3.56358 8.18382 3.64072C8.27674 3.66681 9.11599 3.67893 10.8378 3.67903L13.356 3.67924V6.34861V9.01798L13.4341 9.13517C13.6676 9.48529 14.1241 9.50269 14.3442 9.16994L14.4227 9.05108L14.4136 5.98564C14.4045 2.93684 14.4041 2.91965 14.3325 2.82211C14.293 2.76817 14.2095 2.68887 14.147 2.64591L14.0333 2.56776L11.0906 2.5679C8.23436 2.568 8.1446 2.57001 8.03796 2.6357ZM2.88522 7.86193C2.75417 7.91959 2.64176 8.05998 2.59415 8.22538C2.56977 8.3101 2.56139 9.31919 2.5684 11.3268C2.57868 14.2838 2.57919 14.3034 2.65066 14.4008C2.69023 14.4547 2.77373 14.534 2.83623 14.577L2.94988 14.6551H5.90294C9.13689 14.6551 8.97336 14.6655 9.12513 14.4502C9.30957 14.1885 9.21383 13.8139 8.92269 13.6584L8.77298 13.5784H6.21732H3.66162V10.8917V8.20493L3.58345 8.08773C3.41593 7.83654 3.14332 7.74838 2.88522 7.86193Z" fill="#FF0000"/>
</svg>
