<svg width="20" height="14" viewBox="0 0 20 14" fill="none" xmlns="http://www.w3.org/2000/svg">
<path fill-rule="evenodd" clip-rule="evenodd" d="M4.52875 0.041505C4.09305 0.130292 3.83684 0.228383 3.49529 0.437334C1.99134 1.35733 0.845102 3.78045 0.256696 7.28379C0.0599089 8.45559 0.000954855 9.12604 1.5348e-05 10.2044C-0.000924159 11.2633 0.0410013 11.7011 0.199739 12.289C0.553737 13.6004 1.40877 14.2014 2.5487 13.9401C3.46554 13.7299 4.5486 13.0016 6.08735 11.5606C6.67791 11.0075 6.98521 10.7992 7.54253 10.5739C9.23509 9.88982 11.7552 10.04 13.1236 10.9065C13.2733 11.0012 13.6273 11.2956 13.9102 11.5606C15.8756 13.4012 17.1585 14.1215 18.2073 13.9735C19.1292 13.8434 19.6933 13.0923 19.9256 11.6856C20.0228 11.097 20.0252 9.4567 19.9301 8.61893C19.6402 6.06514 18.966 3.63997 18.1671 2.27758C17.4578 1.06798 16.7067 0.384804 15.7728 0.100043C15.5068 0.0189327 15.3683 0.00458 14.8529 0.00474689C14.1518 0.00499723 13.9472 0.0421307 12.3402 0.460573C11.081 0.788435 10.4355 0.913271 9.99879 0.913271C9.57061 0.913271 8.97356 0.798866 7.66619 0.466331C7.08675 0.318923 6.41007 0.158831 6.16248 0.110557C5.57059 -0.00489138 4.89641 -0.0333883 4.52875 0.041505ZM6.37778 1.12844C6.63614 1.18898 7.12797 1.31356 7.47074 1.40536C9.01219 1.81808 9.75374 1.93503 10.3641 1.86164C10.943 1.79205 11.3135 1.71544 12.3867 1.44345C13.9734 1.04132 14.1423 1.01024 14.7355 1.01132C15.2006 1.01211 15.3015 1.02546 15.5771 1.12268C16.4345 1.42505 17.0661 2.11252 17.6714 3.40219C18.266 4.66899 18.6769 6.24459 18.9692 8.37836C19.0839 9.21554 19.0991 11.156 18.995 11.6647C18.7623 12.8023 18.3416 13.183 17.5386 12.9823C16.7929 12.7959 15.847 12.1387 14.5397 10.8985C13.7849 10.1823 13.3603 9.89224 12.6899 9.63448C11.8937 9.3284 11.2585 9.20765 10.2728 9.17515C9.19125 9.13947 8.39521 9.25037 7.47387 9.56509C6.65799 9.8438 6.07013 10.2305 5.2034 11.0586C4.53932 11.6931 3.68566 12.3557 3.18737 12.6234C2.22308 13.1415 1.61824 13.1029 1.28013 12.5017C1.12398 12.224 1.05081 11.9715 0.971152 11.4353C0.886675 10.8667 0.918696 9.18791 1.03018 8.34056C1.39452 5.57167 2.16566 3.25929 3.12027 2.07318C3.5416 1.54968 4.11705 1.1647 4.65535 1.04612C5.06235 0.956455 5.79266 0.991377 6.37778 1.12844ZM5.15865 2.65684C4.87241 2.69548 4.55181 2.865 4.34206 3.08856C4.14872 3.29459 3.93122 3.72951 3.93119 3.91017C3.93115 4.02303 3.87043 4.0711 3.72802 4.0711C3.68441 4.0711 3.53835 4.12726 3.40346 4.19585C2.77485 4.51562 2.44645 5.24043 2.61411 5.938C2.75594 6.52797 3.11448 6.91375 3.67231 7.07647C3.90566 7.14456 3.9113 7.14965 3.93776 7.31483C4.00431 7.73023 4.35807 8.19361 4.75658 8.38733C5.51206 8.75458 6.4134 8.35011 6.70766 7.51181C6.75229 7.38468 6.78881 7.2462 6.78881 7.2041C6.78881 7.14669 6.82917 7.12069 6.95045 7.1C7.36669 7.02907 7.7951 6.66336 7.9953 6.20808C8.13924 5.88076 8.14609 5.32609 8.01009 5.00987C7.78285 4.48144 7.43171 4.17883 6.90155 4.05453C6.81939 4.0353 6.79414 3.99929 6.77452 3.8735C6.73432 3.61523 6.57793 3.31052 6.3741 3.09327C6.05404 2.75214 5.6165 2.59505 5.15865 2.65684ZM13.9718 2.85324C13.3622 3.15711 13.3113 4.0756 13.8817 4.47752C14.0243 4.57799 14.0827 4.59251 14.3413 4.5918C14.5969 4.59105 14.6604 4.57524 14.8036 4.47681C14.8949 4.41402 15.0182 4.28434 15.0776 4.18863C15.1719 4.03672 15.1857 3.97405 15.1857 3.69559C15.1857 3.41717 15.1719 3.35442 15.0777 3.20267C14.9089 2.93084 14.6963 2.80308 14.3875 2.78781C14.1968 2.77838 14.0874 2.79562 13.9718 2.85324ZM5.64324 3.6794C5.8057 3.78905 5.85725 3.9294 5.88649 4.34188C5.92611 4.90005 6.05271 5.03073 6.55394 5.03073C6.87795 5.03073 7.0316 5.09932 7.14269 5.29355C7.29348 5.55707 7.19953 5.94948 6.95616 6.07277C6.89643 6.10306 6.69788 6.13702 6.51495 6.14829C6.01302 6.17925 5.88845 6.30942 5.88845 6.80322C5.88845 7.2953 5.70822 7.53367 5.3359 7.53396C5.00547 7.53425 4.83151 7.2971 4.83151 6.84645C4.83151 6.30625 4.66024 6.11595 4.17385 6.1157C3.72297 6.11545 3.50054 5.9325 3.50054 5.56187C3.50054 5.22174 3.72575 5.03228 4.13471 5.0284C4.66842 5.02326 4.80164 4.88407 4.83284 4.29891C4.85214 3.93675 4.86251 3.89699 4.96836 3.7792C5.1538 3.57292 5.42582 3.5327 5.64324 3.6794ZM12.2873 4.69962C12.1077 4.75527 11.8563 5.0067 11.7799 5.2071C11.5418 5.83132 11.9419 6.49705 12.5551 6.49697C12.9255 6.49693 13.2003 6.31614 13.3496 5.97439C13.5058 5.61682 13.4588 5.26659 13.2159 4.97954C12.9738 4.69327 12.6361 4.59151 12.2873 4.69962ZM15.7728 4.73362C15.314 4.95797 15.126 5.49157 15.3374 5.96951C15.4956 6.32687 15.7501 6.49701 16.1267 6.49701C16.5906 6.49701 16.9724 6.09038 16.9724 5.59608C16.9724 5.19425 16.8129 4.923 16.4775 4.7544C16.241 4.63553 15.9887 4.6281 15.7728 4.73362ZM14.0691 6.59677C13.2788 6.85642 13.3046 8.10628 14.1053 8.35441C14.6515 8.52364 15.2017 8.08621 15.2044 7.48064C15.2061 7.07947 14.9514 6.70475 14.6018 6.5941C14.3694 6.5205 14.3001 6.52088 14.0691 6.59677Z"/>
</svg>
