<svg width="20" height="17" viewBox="0 0 20 17" fill="none" xmlns="http://www.w3.org/2000/svg">
<path fill-rule="evenodd" clip-rule="evenodd" d="M4.75153 0.022886C2.95358 0.293975 1.48777 1.37264 0.630977 3.05505C0.390355 3.52751 0.228336 3.99454 0.105266 4.57022C0.0152724 4.99114 0.00145441 5.14843 8.43543e-05 5.76633C-0.00124656 6.36543 0.0125323 6.5416 0.0872592 6.88161C0.340603 8.034 0.923269 9.20888 1.82829 10.3923C2.73069 11.5723 4.21947 13.0297 5.74971 14.2308C6.84615 15.0915 8.47566 16.2171 9.41513 16.7628C9.9489 17.0729 10.0414 17.0753 10.5273 16.7914C12.6865 15.5303 15.3486 13.4558 16.878 11.8427C18.6515 9.972 19.5869 8.40438 19.9288 6.73035C20.032 6.2246 20.0215 5.1865 19.9073 4.62202C19.5453 2.83211 18.4668 1.34857 16.9704 0.581794C16.4972 0.339355 16.2641 0.251018 15.7707 0.127145C15.2393 -0.0062265 14.3022 -0.0408002 13.7548 0.0527677C13.1229 0.160757 12.3576 0.446114 11.8594 0.75943C11.2513 1.14197 10.5951 1.76379 10.2243 2.30893C10.1107 2.47607 10.0083 2.61279 9.99689 2.61279C9.98546 2.61279 9.87981 2.47 9.76214 2.29551C9.48151 1.87948 8.74251 1.15539 8.31368 0.876304C7.66623 0.45496 6.97325 0.178871 6.25381 0.0556137C5.94602 0.00284952 5.0183 -0.0173409 4.75153 0.022886Z" fill="#FF0000"/>
</svg>
