<svg width="32" height="21" viewBox="0 0 32 21" fill="none" xmlns="http://www.w3.org/2000/svg">
<path fill-rule="evenodd" clip-rule="evenodd" d="M12.1693 0.0923079C11.8234 0.216391 11.5224 0.471345 11.3265 0.806193L11.1532 1.10263V4.87415C11.1532 8.64397 11.1532 8.6458 11.2912 8.90515C11.4705 9.24207 11.9247 9.64104 12.2355 9.73463C12.5829 9.83923 19.4171 9.83923 19.7645 9.73463C20.0753 9.64104 20.5295 9.24207 20.7088 8.90515C20.8468 8.6458 20.8468 8.64397 20.8468 4.87415V1.10263L20.6735 0.806193C20.4776 0.471345 20.1766 0.216391 19.8307 0.0923079C19.4877 -0.0307693 12.5123 -0.0307693 12.1693 0.0923079ZM19.6294 0.977986C20.0146 1.17825 20.0073 1.09666 19.9884 4.97315L19.9713 8.49827L19.7377 8.71337L19.504 8.92853H16H12.4959L12.2623 8.71337L12.0287 8.49827L12.0115 4.99006C11.9987 2.37829 12.0135 1.4356 12.0691 1.30058C12.1102 1.20082 12.2305 1.06605 12.3364 1.00112C12.5187 0.889418 12.7142 0.883069 15.9875 0.882881C18.9568 0.882692 19.4718 0.896144 19.6294 0.977986ZM12.7479 2.32838C12.6791 2.39752 12.6228 2.52525 12.6228 2.61218C12.6228 2.69912 12.9062 3.79525 13.2526 5.04796C13.6957 6.65066 13.9213 7.36757 14.0139 7.46707C14.1149 7.5755 14.2152 7.6085 14.4439 7.6085C14.9282 7.6085 14.9985 7.50535 15.489 6.07425C15.7249 5.38601 15.9331 4.84857 15.9517 4.87993C15.9702 4.91136 16.1308 5.47414 16.3086 6.13063C16.7053 7.5965 16.714 7.6085 17.3759 7.6085C17.7914 7.6085 17.8718 7.5899 17.9861 7.46707C18.1624 7.27761 19.403 2.81811 19.3447 2.58314C19.2609 2.24559 18.9788 2.10976 18.6873 2.26652C18.5486 2.34114 18.4953 2.50822 17.8703 4.82701C17.6163 5.76913 17.3928 6.53991 17.3734 6.53991C17.3428 6.53991 17.1989 6.01592 16.5286 3.46298C16.3871 2.92365 16.2353 2.70553 16.0015 2.70553C15.8051 2.70553 15.5753 2.94477 15.5333 3.19293C15.4772 3.52357 14.5236 6.19186 14.4857 6.1241C14.4686 6.09348 14.2333 5.2491 13.9629 4.24764C13.6592 3.12285 13.4286 2.38394 13.3598 2.31474C13.2112 2.16538 12.9033 2.17224 12.7479 2.32838ZM1.0372 11.2801C0.690228 11.406 0.389849 11.6609 0.194412 11.995L0.0210509 12.2915L0.0034772 15.9547C-0.00784253 18.3223 0.00866801 19.7029 0.0501945 19.858C0.144129 20.2086 0.442507 20.5868 0.784538 20.7889L1.08423 20.966H4.83662C8.58733 20.966 8.58914 20.9659 8.84718 20.8272C9.1824 20.647 9.57934 20.1905 9.67246 19.8781C9.77653 19.5289 9.77653 12.6599 9.67246 12.3108C9.57934 11.9984 9.1824 11.5419 8.84718 11.3617C8.59027 11.2236 8.57138 11.2228 4.93043 11.2089C1.98249 11.1977 1.22626 11.2115 1.0372 11.2801ZM12.1693 11.2811C11.8234 11.4052 11.5224 11.6602 11.3265 11.995L11.1532 12.2915V16.0944V19.8974L11.3265 20.1938C11.5224 20.5287 11.8234 20.7836 12.1693 20.9077C12.5123 21.0308 19.4877 21.0308 19.8307 20.9077C20.1766 20.7836 20.4776 20.5287 20.6735 20.1938L20.8468 19.8974V16.0944V12.2915L20.6735 11.995C20.4776 11.6602 20.1766 11.4052 19.8307 11.2811C19.4877 11.1581 12.5123 11.1581 12.1693 11.2811ZM23.4419 11.2502C22.9562 11.3987 22.4581 11.8727 22.3275 12.3108C22.2235 12.6599 22.2235 19.5289 22.3275 19.8781C22.4207 20.1905 22.8176 20.647 23.1528 20.8272C23.4109 20.9659 23.4127 20.966 27.1634 20.966H30.9158L31.2155 20.7889C31.5575 20.5868 31.8559 20.2086 31.9498 19.858C31.9913 19.7029 32.0078 18.3223 31.9965 15.9547L31.9789 12.2915L31.8056 11.995C31.6097 11.6602 31.3087 11.4052 30.9628 11.2811C30.7769 11.2145 29.9883 11.1975 27.1634 11.1996C25.2027 11.2011 23.5281 11.2238 23.4419 11.2502ZM8.65637 12.3377L8.87045 12.5725V16.0944V19.6163L8.65637 19.8512L8.44236 20.0859L4.93512 20.1032C1.07829 20.1221 1.15946 20.1295 0.960213 19.7423C0.817934 19.4658 0.817684 12.7236 0.959963 12.4471C1.15684 12.0643 1.05584 12.0735 4.91961 12.0889L8.44236 12.1029L8.65637 12.3377ZM19.6294 12.1668C20.0091 12.3642 20.0026 12.2948 20.0026 16.0944C20.0026 19.894 20.0091 19.8246 19.6294 20.022C19.3538 20.1652 12.6462 20.1652 12.3706 20.022C11.9909 19.8246 11.9974 19.894 11.9974 16.0944C11.9974 12.312 11.9922 12.3693 12.3579 12.1698C12.6175 12.0282 19.3573 12.0254 19.6294 12.1668ZM30.7615 12.1668C31.1412 12.3642 31.1347 12.2948 31.1347 16.0944C31.1347 19.8977 31.1417 19.8244 30.7585 20.0235C30.5959 20.1081 30.1246 20.1182 27.0649 20.1032L23.5576 20.0859L23.3436 19.8512L23.1295 19.6163V16.1001V12.584L23.2964 12.3846C23.3882 12.275 23.5219 12.1615 23.5935 12.1324C23.6651 12.1033 25.2659 12.0776 27.1509 12.0754C30.0972 12.072 30.6038 12.0849 30.7615 12.1668ZM4.75851 13.0929C4.6849 13.1722 4.5682 13.4678 4.49278 13.7659C4.33343 14.3959 4.01372 15.3694 3.66619 16.283C3.52804 16.646 3.33773 17.1552 3.24323 17.4144C3.14867 17.6737 2.99564 18.0894 2.90302 18.3381C2.74391 18.7655 2.7401 18.8008 2.8331 18.9815C2.9351 19.1798 3.14886 19.2755 3.34786 19.212C3.47669 19.1709 3.65868 18.8405 3.88777 18.2316L4.04155 17.823L4.91718 17.8056L5.7928 17.7882L5.92813 18.2456C6.00256 18.4972 6.0791 18.7596 6.09824 18.8288C6.15609 19.0376 6.38005 19.2373 6.55647 19.2373C6.74816 19.2373 6.99425 19.0042 6.99425 18.8225C6.99425 18.7545 6.82433 18.1481 6.61664 17.4752C6.18417 16.0738 5.80618 14.6963 5.61687 13.8317C5.47366 13.1778 5.32931 12.9515 5.05551 12.9515C4.96414 12.9515 4.83081 13.015 4.75851 13.0929ZM15.3995 13.102C14.2087 13.6593 13.9953 15.0886 14.9583 16.0565C15.171 16.2703 15.3291 16.3644 15.6044 16.441C16.3537 16.6496 16.4609 16.6956 16.5817 16.8598C16.7471 17.0846 16.793 17.5898 16.6696 17.8283C16.5256 18.1066 16.2927 18.2954 16.0437 18.3361C15.7295 18.3873 15.5528 18.3291 15.25 18.0749C14.9357 17.8109 14.7419 17.7954 14.5661 18.0201C14.3738 18.2659 14.4048 18.3943 14.7372 18.7284C15.7591 19.7555 17.4137 19.1289 17.6558 17.6232C17.7088 17.2939 17.5537 16.6536 17.3436 16.3336C17.1452 16.0316 16.7603 15.8095 16.2175 15.6841C15.6689 15.5572 15.5463 15.4767 15.3817 15.1349C15.2116 14.7817 15.2144 14.5315 15.3915 14.2651C15.7183 13.7734 16.3074 13.7046 16.7502 14.1066C17.0453 14.3746 17.1737 14.3892 17.398 14.1802C17.644 13.9511 17.6164 13.7356 17.304 13.4457C16.7836 12.9627 15.9994 12.8212 15.3995 13.102ZM25.2715 13.5936L25.1308 13.7453V16.1032V18.4611L25.2834 18.6052C25.4303 18.7438 25.4673 18.7482 26.2684 18.7208C26.9115 18.6988 27.1751 18.6629 27.4272 18.563C27.8898 18.3798 28.3443 18.0247 28.6308 17.6226C28.9785 17.1345 29.1009 16.7366 29.1009 16.0944C29.1009 15.4522 28.9785 15.0543 28.6308 14.5663C28.3444 14.1643 27.8901 13.8093 27.4272 13.6256C27.1725 13.5245 26.9154 13.4901 26.2565 13.469C25.4284 13.4425 25.4096 13.4449 25.2715 13.5936ZM27.3117 14.556C27.9297 14.8941 28.2237 15.39 28.2237 16.0944C28.2237 16.4577 28.1924 16.6252 28.0874 16.8246C27.7387 17.4866 27.2507 17.7982 26.4934 17.8423L26.0064 17.8706V16.0944V14.3182L26.4934 14.3466C26.8771 14.3689 27.0509 14.4134 27.3117 14.556ZM5.29873 15.9687C5.4093 16.3663 5.51424 16.7411 5.53201 16.8016C5.56109 16.9008 5.5068 16.9116 4.97534 16.9116H4.3864L4.68966 16.0941C4.85651 15.6445 4.99297 15.2428 4.99297 15.2015C4.99297 15.0026 5.1158 15.3108 5.29873 15.9687Z" fill="black"/>
</svg>
