<svg width="16" height="17" viewBox="0 0 16 17" fill="none" xmlns="http://www.w3.org/2000/svg">
<path fill-rule="evenodd" clip-rule="evenodd" d="M15.3619 8.18848C15.3139 7.97638 15.2313 7.76885 15.1302 7.60629C15.0789 7.52382 13.5664 5.91114 11.769 4.0226C8.24436 0.319144 8.4214 0.48974 7.99356 0.384346C7.65612 0.301263 7.33018 0.360828 6.99297 0.567249C6.81852 0.674017 6.72236 0.771967 6.41909 1.15171L6.05481 1.60788L5.80504 1.60154C5.51269 1.5941 5.29092 1.65989 5.01712 1.83526C4.85893 1.93657 4.59453 2.26077 2.71716 4.65546C0.399461 7.61178 0.480419 7.49413 0.398455 8.02469C0.333566 8.44462 0.435679 8.96038 0.652819 9.30961C0.704523 9.39279 2.21739 11.006 4.01477 12.8946C7.53943 16.598 7.36239 16.4274 7.79023 16.5328C8.05298 16.5975 12.3563 16.3927 12.635 16.3022C13.0349 16.1723 13.3938 15.8174 13.5632 15.384L13.6542 15.151L14.0202 15.133C14.2424 15.122 14.459 15.0913 14.5714 15.0548C15.0987 14.8836 15.514 14.3539 15.6106 13.7294C15.6394 13.5431 15.6255 13.1192 15.5184 10.9165C15.4491 9.49005 15.3787 8.26244 15.3619 8.18848ZM14.5864 13.6466C14.4907 13.8855 14.35 13.9623 13.9755 13.9801L13.6726 13.9945L13.568 11.7924C13.4978 10.3158 13.4498 9.53166 13.4224 9.41219C13.3999 9.31424 13.3371 9.13679 13.2829 9.01788C13.191 8.81623 12.9745 8.58057 10.0602 5.50984L6.93595 2.21799L7.1567 1.9329C7.46584 1.53358 7.63512 1.43851 7.87612 1.52879C7.98258 1.56872 14.2984 8.2021 14.3593 8.33808C14.3958 8.41943 14.4265 8.90579 14.5254 10.9668L14.6468 13.4958L14.5864 13.6466ZM12.6499 14.894C12.6086 14.9971 12.5503 15.0715 12.4657 15.129L12.3419 15.2131L10.1669 15.3165C8.72597 15.385 7.9634 15.4092 7.90767 15.3884C7.79466 15.346 1.48327 8.71163 1.42291 8.57175C1.36185 8.43016 1.35544 8.24762 1.40673 8.11099C1.46415 7.95807 5.41534 2.91296 5.54651 2.82504C5.66353 2.74665 5.81169 2.72823 5.93967 2.77618C6.04614 2.81611 12.3619 9.44948 12.4229 9.58546C12.4594 9.66681 12.4901 10.1532 12.589 12.2142L12.7103 14.7432L12.6499 14.894ZM11.5328 11.943C11.3934 11.4049 10.9891 10.9447 10.5116 10.7805C9.61581 10.4725 8.71072 11.1957 8.62569 12.2873C8.60715 12.5258 8.61291 12.6025 8.6664 12.8282C8.75641 13.208 8.86968 13.4218 9.12134 13.6873C9.62359 14.217 10.2611 14.3096 10.8483 13.9382C11.4512 13.5569 11.736 12.7269 11.5328 11.943ZM10.5503 12.6981C10.3971 13.0531 10.0004 13.1092 9.75118 12.8112C9.51306 12.5264 9.60014 12.0712 9.92371 11.9094C10.3347 11.7037 10.7525 12.2296 10.5503 12.6981Z" fill="#8C8C8C"/>
</svg>
