<svg width="15" height="13" viewBox="0 0 15 13" fill="none" xmlns="http://www.w3.org/2000/svg">
<path fill-rule="evenodd" clip-rule="evenodd" d="M8.94938 0.292492C8.73429 0.37563 8.70465 0.455099 8.70465 0.948876C8.70465 1.33313 8.71124 1.38719 8.76813 1.4688C8.83952 1.57122 9.02118 1.65285 9.17765 1.65285C9.33412 1.65285 9.51578 1.57122 9.58717 1.4688C9.64406 1.38719 9.65065 1.33313 9.65065 0.948876C9.65065 0.564619 9.64406 0.510563 9.58717 0.428948C9.47081 0.262001 9.18597 0.201067 8.94938 0.292492ZM6.21403 1.07642C6.07339 1.10057 5.90844 1.23164 5.88025 1.34163C5.83878 1.50336 5.8986 1.57482 6.34662 1.89902C6.79736 2.22515 6.8925 2.26617 7.1137 2.22963C7.39466 2.18326 7.56059 1.93165 7.43014 1.7498C7.35509 1.64517 6.54708 1.07582 6.47364 1.07582C6.43747 1.07582 6.38897 1.07171 6.36589 1.06668C6.34278 1.06167 6.27445 1.06604 6.21403 1.07642ZM11.893 1.07596C11.8149 1.08944 11.6769 1.1739 11.3784 1.39093C11.1542 1.55402 10.9504 1.71552 10.9256 1.7498C10.7943 1.93108 10.9604 2.18322 11.2416 2.22963C11.4628 2.26617 11.5579 2.22515 12.0087 1.89902C12.4586 1.57343 12.5166 1.50373 12.4743 1.33886C12.4483 1.23721 12.2481 1.07582 12.148 1.07582C12.1128 1.07582 12.065 1.07171 12.0419 1.06668C12.0188 1.06167 11.9518 1.06583 11.893 1.07596ZM8.51545 2.37982C8.31361 2.4444 8.27419 2.51831 8.0888 3.17975C7.82367 4.12578 7.68127 4.40966 7.34213 4.66817C7.09166 4.85907 6.85236 4.97305 6.08487 5.26694C5.73072 5.40254 5.30246 5.56926 5.13316 5.63742C4.96389 5.70555 4.81871 5.76132 4.81058 5.76132C4.80247 5.76132 4.76507 5.71721 4.72749 5.66327C4.63759 5.53431 4.34146 5.32513 4.15185 5.25669C3.83355 5.14177 3.78048 5.1387 2.12082 5.1384C0.624918 5.13812 0.561883 5.13988 0.44212 5.18459C0.361994 5.2145 0.295017 5.26352 0.25415 5.32217C0.191431 5.41217 0.190674 5.45171 0.190674 8.60031C0.190674 11.7489 0.191431 11.7885 0.25415 11.8785C0.295017 11.9371 0.361994 11.9861 0.44212 12.016C0.561757 12.0607 0.625391 12.0625 2.09563 12.0625C3.10844 12.0625 3.68112 12.0537 3.7918 12.0365C4.02505 12.0003 4.30191 11.8931 4.48342 11.7689L4.6373 11.6635L4.8657 11.7124C5.48138 11.8443 6.21031 11.9517 6.93913 12.018C7.35077 12.0553 12.0003 12.0754 12.2554 12.0409C12.8544 11.9599 13.3093 11.6189 13.4096 11.1757C13.4419 11.0329 13.4219 10.8524 13.3555 10.689C13.3396 10.6499 13.3678 10.6329 13.5386 10.5784C14.3371 10.3238 14.6166 9.59712 14.1248 9.05374L14.0278 8.94653L14.1248 8.83932C14.3004 8.64532 14.3595 8.49797 14.3595 8.25409C14.3595 8.01022 14.3004 7.86287 14.1248 7.66887L14.0278 7.56166L14.1248 7.45444C14.4123 7.13678 14.4492 6.76247 14.2267 6.41999C14.066 6.17256 13.8159 6.00603 13.4379 5.89475C13.2659 5.84409 13.2229 5.8424 11.8211 5.83086L10.3811 5.81902L10.5213 5.57667C10.8817 4.95384 11.0272 4.58886 11.0591 4.22725C11.1323 3.39837 10.4389 2.66167 9.35534 2.4171C9.0623 2.35095 8.66129 2.33315 8.51545 2.37982ZM9.38782 3.17938C9.72554 3.31879 10.009 3.61031 10.0924 3.90402C10.1681 4.17079 10.0596 4.58023 9.78372 5.06888C9.7156 5.18948 9.59118 5.41018 9.50717 5.55936L9.35449 5.83056H8.98101C8.66892 5.83056 8.58706 5.8382 8.4831 5.87702C8.34318 5.92928 8.23165 6.06225 8.23165 6.17678C8.23165 6.29131 8.34318 6.42428 8.4831 6.47654C8.60434 6.5218 8.66482 6.523 10.8331 6.523C13.0015 6.523 13.0619 6.5242 13.1832 6.56946C13.3231 6.62172 13.4346 6.75469 13.4346 6.86922C13.4346 6.98375 13.3231 7.11672 13.1832 7.16897C13.0721 7.21047 12.9978 7.21544 12.4886 7.21544C11.9795 7.21544 11.9052 7.2204 11.7941 7.2619C11.6542 7.31416 11.5426 7.44713 11.5426 7.56166C11.5426 7.67619 11.6542 7.80916 11.7941 7.86141C11.9052 7.90291 11.9795 7.90787 12.4886 7.90787C13.1521 7.90787 13.2583 7.93001 13.3712 8.09192C13.4516 8.20728 13.4516 8.3009 13.3712 8.41626C13.2583 8.57818 13.1521 8.60031 12.4886 8.60031C11.8251 8.60031 11.719 8.62245 11.6061 8.78436C11.5257 8.89972 11.5257 8.99334 11.6061 9.1087C11.719 9.27061 11.8251 9.29275 12.4886 9.29275C13.1521 9.29275 13.2583 9.31489 13.3712 9.4768C13.4516 9.59216 13.4516 9.68578 13.3712 9.80114C13.2583 9.96305 13.1521 9.98519 12.4886 9.98519C11.9795 9.98519 11.9052 9.99015 11.7941 10.0316C11.6542 10.0839 11.5426 10.2169 11.5426 10.3314C11.5426 10.507 11.7757 10.6776 12.0156 10.6776C12.2556 10.6776 12.4886 10.8482 12.4886 11.0238C12.4886 11.1384 12.3771 11.2713 12.2372 11.3236C12.1161 11.3688 12.0553 11.3701 9.95778 11.3701C7.8424 11.3701 7.27455 11.3561 6.65499 11.2886C6.25095 11.2447 5.6698 11.1549 5.26753 11.0744L4.93643 11.0081V8.76006V6.51201L5.31483 6.35554C5.52294 6.2695 5.96993 6.0938 6.30812 5.96513C7.06804 5.67599 7.38785 5.53965 7.67644 5.38177C8.37878 4.99756 8.69222 4.52832 8.98791 3.41857C9.02512 3.27893 9.0629 3.14607 9.07185 3.12332C9.09178 3.07272 9.15784 3.08445 9.38782 3.17938ZM3.72322 5.87702C3.80334 5.90694 3.87032 5.95596 3.91119 6.01461C3.97365 6.10424 3.97466 6.14569 3.97466 8.60031C3.97466 11.0549 3.97365 11.0964 3.91119 11.186C3.87032 11.2447 3.80334 11.2937 3.72322 11.3236C3.60478 11.3678 3.53928 11.3701 2.36773 11.3701H1.13667V8.60031V5.83056H2.36773C3.53928 5.83056 3.60478 5.8328 3.72322 5.87702ZM2.3274 10.0328C2.19426 10.0842 2.08267 10.2204 2.08267 10.3314C2.08267 10.507 2.31573 10.6776 2.55567 10.6776C2.7956 10.6776 3.02867 10.507 3.02867 10.3314C3.02867 10.2169 2.91713 10.0839 2.77722 10.0316C2.62186 9.97365 2.47955 9.97399 2.3274 10.0328Z" fill="black"/>
</svg>
