<svg width="20" height="20" viewBox="0 0 20 20" fill="none" xmlns="http://www.w3.org/2000/svg">
<path fill-rule="evenodd" clip-rule="evenodd" d="M12.3537 0.0719433C12.0504 0.212707 12.0086 0.347257 12.0086 1.18328C12.0086 1.83388 12.0178 1.9254 12.0981 2.06358C12.1988 2.23698 12.455 2.3752 12.6757 2.3752C12.8964 2.3752 13.1526 2.23698 13.2533 2.06358C13.3335 1.9254 13.3428 1.83388 13.3428 1.18328C13.3428 0.532689 13.3335 0.441165 13.2533 0.302981C13.0892 0.0203195 12.6874 -0.08285 12.3537 0.0719433ZM8.49565 1.39924C8.29729 1.44011 8.06463 1.66204 8.02487 1.84826C7.96639 2.12209 8.05076 2.24308 8.68267 2.79198C9.31842 3.34418 9.4526 3.41362 9.7646 3.35176C10.1609 3.27325 10.3949 2.84724 10.2109 2.53934C10.1051 2.36219 8.96541 1.39822 8.86182 1.39822C8.81081 1.39822 8.74241 1.39126 8.70985 1.38274C8.67725 1.37426 8.58087 1.38165 8.49565 1.39924ZM16.5056 1.39845C16.3954 1.42128 16.2007 1.56427 15.7798 1.93173C15.4635 2.20787 15.1761 2.4813 15.1411 2.53934C14.9559 2.84627 15.1902 3.27317 15.5868 3.35176C15.8988 3.41362 16.033 3.34418 16.6687 2.79198C17.3034 2.24073 17.3851 2.12271 17.3255 1.84357C17.2888 1.67146 17.0064 1.39822 16.8653 1.39822C16.8155 1.39822 16.7481 1.39126 16.7156 1.38274C16.683 1.37426 16.5885 1.3813 16.5056 1.39845ZM11.7417 3.60605C11.457 3.71539 11.4014 3.84052 11.1399 4.96042C10.766 6.56217 10.5651 7.04281 10.0868 7.48049C9.73351 7.80372 9.39598 7.99669 8.31348 8.49429C7.81397 8.72388 7.20994 9.00615 6.97114 9.12155C6.7324 9.23692 6.52763 9.33133 6.51615 9.33133C6.50472 9.33133 6.45197 9.25665 6.39896 9.16532C6.27216 8.94699 5.85448 8.59281 5.58705 8.47694C5.1381 8.28236 5.06325 8.27717 2.72238 8.27666C0.612481 8.27619 0.523573 8.27916 0.354653 8.35486C0.241639 8.4055 0.147172 8.48851 0.0895305 8.58781C0.00106745 8.74018 0 8.80712 0 14.1381C0 19.4691 0.00106745 19.536 0.0895305 19.6884C0.147172 19.7877 0.241639 19.8707 0.354653 19.9213C0.523395 19.997 0.613148 20 2.68685 20C4.11538 20 4.92311 19.9851 5.07922 19.956C5.40821 19.8946 5.79871 19.7132 6.05471 19.5028L6.27176 19.3244L6.5939 19.4073C7.46229 19.6306 8.4904 19.8125 9.51838 19.9246C10.099 19.9879 16.657 20.0219 17.0167 19.9635C17.8616 19.8263 18.5031 19.2489 18.6447 18.4985C18.6902 18.2567 18.662 17.9512 18.5684 17.6746C18.546 17.6083 18.5858 17.5795 18.8266 17.4873C19.9529 17.0561 20.347 15.8258 19.6535 14.9058L19.5167 14.7243L19.6535 14.5428C19.9011 14.2143 19.9844 13.9648 19.9844 13.5519C19.9844 13.139 19.9011 12.8895 19.6535 12.561L19.5167 12.3795L19.6535 12.198C20.0589 11.6602 20.1109 11.0264 19.7972 10.4465C19.5705 10.0276 19.2177 9.74565 18.6846 9.55725C18.442 9.47147 18.3813 9.46862 16.4042 9.44908L14.3731 9.42903L14.5709 9.0187C15.0792 7.96418 15.2844 7.34622 15.3294 6.73396C15.4327 5.33058 14.4547 4.08325 12.9263 3.66916C12.513 3.55716 11.9474 3.52703 11.7417 3.60605ZM12.9721 4.9598C13.4485 5.19584 13.8482 5.68941 13.9659 6.18669C14.0727 6.63837 13.9197 7.3316 13.5305 8.15895C13.4345 8.36314 13.259 8.73682 13.1405 8.98939L12.9251 9.44857H12.3983C11.9582 9.44857 11.8427 9.4615 11.6961 9.52724C11.4987 9.61571 11.3414 9.84085 11.3414 10.0348C11.3414 10.2287 11.4987 10.4538 11.6961 10.5423C11.8671 10.6189 11.9524 10.621 15.0107 10.621C18.069 10.621 18.1543 10.623 18.3253 10.6996C18.5227 10.7881 18.68 11.0132 18.68 11.2071C18.68 11.4011 18.5227 11.6262 18.3253 11.7147C18.1686 11.7849 18.0638 11.7933 17.3457 11.7933C16.6275 11.7933 16.5228 11.8017 16.3661 11.872C16.1687 11.9605 16.0114 12.1856 16.0114 12.3795C16.0114 12.5734 16.1687 12.7986 16.3661 12.887C16.5228 12.9573 16.6275 12.9657 17.3457 12.9657C18.2815 12.9657 18.4313 13.0032 18.5904 13.2773C18.7039 13.4727 18.7039 13.6312 18.5904 13.8265C18.4313 14.1006 18.2815 14.1381 17.3457 14.1381C16.4099 14.1381 16.2601 14.1756 16.1009 14.4497C15.9875 14.645 15.9875 14.8035 16.1009 14.9989C16.2601 15.273 16.4099 15.3105 17.3457 15.3105C18.2815 15.3105 18.4313 15.348 18.5904 15.6221C18.7039 15.8174 18.7039 15.9759 18.5904 16.1712C18.4313 16.4454 18.2815 16.4829 17.3457 16.4829C16.6275 16.4829 16.5228 16.4913 16.3661 16.5615C16.1687 16.65 16.0114 16.8751 16.0114 17.069C16.0114 17.3664 16.3401 17.6552 16.6785 17.6552C17.017 17.6552 17.3457 17.9441 17.3457 18.2414C17.3457 18.4353 17.1884 18.6605 16.991 18.749C16.8202 18.8255 16.7345 18.8276 13.776 18.8276C10.7924 18.8276 9.99147 18.8039 9.11761 18.6897C8.54773 18.6153 7.72804 18.4634 7.16066 18.327L6.69366 18.2148V14.4086V10.6023L7.22737 10.3374C7.52091 10.1917 8.15136 9.89427 8.62837 9.6764C9.7002 9.18686 10.1513 8.95601 10.5583 8.68871C11.5489 8.0382 11.991 7.24371 12.4081 5.36478C12.4606 5.12835 12.5138 4.9034 12.5265 4.86487C12.5546 4.77921 12.6478 4.79906 12.9721 4.9598ZM4.98248 9.52724C5.0955 9.57788 5.18996 9.66089 5.2476 9.76019C5.33571 9.91193 5.33714 9.98212 5.33714 14.1381C5.33714 18.2941 5.33571 18.3643 5.2476 18.516C5.18996 18.6153 5.0955 18.6983 4.98248 18.749C4.81543 18.8238 4.72305 18.8276 3.07063 18.8276H1.33428V14.1381V9.44857H3.07063C4.72305 9.44857 4.81543 9.45236 4.98248 9.52724ZM3.01375 16.5634C2.82597 16.6505 2.66857 16.8811 2.66857 17.069C2.66857 17.3664 2.99729 17.6552 3.33571 17.6552C3.67413 17.6552 4.00285 17.3664 4.00285 17.069C4.00285 16.8751 3.84554 16.65 3.6482 16.5615C3.42907 16.4633 3.22834 16.4639 3.01375 16.5634Z"/>
</svg>
