<svg width="18" height="16" viewBox="0 0 18 16" fill="none" xmlns="http://www.w3.org/2000/svg">
<path fill-rule="evenodd" clip-rule="evenodd" d="M8.04214 0.0306127C5.70936 0.22849 3.56691 1.23723 2.04078 2.85629C1.91113 2.99386 1.66622 3.29357 1.49659 3.5223C0.660519 4.6496 0.176284 5.88854 0.0339381 7.26467C-0.0193152 7.77964 -0.0134176 7.88091 0.0768268 7.99972C0.235644 8.20879 0.262132 8.21613 1.38247 8.3623C2.60287 8.5215 2.7337 8.52722 2.89834 8.42867C3.07192 8.32478 3.13896 8.18174 3.139 7.91502C3.1391 7.59758 3.2305 7.00426 3.33271 6.65791C3.91009 4.70134 5.71794 3.22422 7.95489 2.8813C8.36389 2.81862 9.36317 2.81052 9.73466 2.86686C10.06 2.91623 10.6409 3.0482 10.8506 3.12039C10.9374 3.15025 11.0386 3.18445 11.0756 3.19636C11.1323 3.21471 11.0588 3.29407 10.6002 3.70936C10.3019 3.97958 10.0386 4.23383 10.0152 4.27435C9.90195 4.46988 9.99858 4.76887 10.2109 4.87993C10.3778 4.96728 15.6299 5.63467 15.8094 5.59133C15.9609 5.55481 16.1386 5.38927 16.1718 5.25383C16.1948 5.16009 15.4943 0.628402 15.4198 0.388942C15.3422 0.13954 15.0545 -0.00653028 14.7763 0.0622842C14.6668 0.0893911 14.5179 0.202977 14.0599 0.608798C13.742 0.89056 13.4706 1.12108 13.4567 1.12108C13.4429 1.12108 13.3183 1.06346 13.1797 0.993015C12.5 0.647442 11.4949 0.312937 10.7023 0.168523C9.84116 0.0116035 8.86376 -0.0390773 8.04214 0.0306127ZM15.0177 7.58999C14.7968 7.71067 14.7498 7.81356 14.7177 8.24693C14.6155 9.6256 14.0633 10.7468 13.031 11.6717C12.2449 12.376 11.2097 12.881 10.1534 13.0757C9.12636 13.2649 7.95416 13.1903 7.01267 12.8759C6.9071 12.8406 6.79836 12.8048 6.771 12.7962C6.73816 12.786 6.91199 12.6085 7.28281 12.2738C7.74593 11.8557 7.84849 11.7467 7.8681 11.652C7.91333 11.4334 7.81126 11.2367 7.60233 11.1399C7.54084 11.1114 6.43135 10.9557 4.81323 10.7484L2.12624 10.4042L1.97053 10.4659C1.77587 10.5431 1.67373 10.684 1.67345 10.8758C1.6731 11.1178 2.40755 15.6365 2.46485 15.7448C2.52341 15.8555 2.67901 15.9544 2.84244 15.9847C3.06372 16.0258 3.16478 15.9639 3.78812 15.4061L4.38567 14.8714L4.81801 15.0761C7.95053 16.5592 11.7882 16.2359 14.5499 14.2563C14.9532 13.9673 15.5738 13.4183 15.8761 13.0833C16.2204 12.7016 16.6495 12.1073 16.8989 11.6667C17.4631 10.67 17.8286 9.41828 17.8433 8.43205C17.8477 8.14013 17.8393 8.08794 17.7763 8.01191C17.6197 7.82291 17.59 7.81522 16.4523 7.66884C15.8606 7.59271 15.3201 7.53049 15.2513 7.53055C15.1826 7.53061 15.0774 7.55734 15.0177 7.58999Z" fill="black"/>
</svg>
