<svg width="14" height="21" viewBox="0 0 14 21" fill="none" xmlns="http://www.w3.org/2000/svg">
<path fill-rule="evenodd" clip-rule="evenodd" d="M6.16908 0.010298C4.11189 0.275304 2.28391 1.39442 1.15154 3.08216C0.543244 3.98879 0.18966 4.94764 0.046468 6.07903C-0.0152188 6.56615 -0.0156126 14.3754 0.0460305 14.9033C0.357352 17.5709 2.15161 19.7782 4.72286 20.6567C5.56005 20.9427 5.94001 21 7.00033 21C7.8068 21 8.00398 20.9865 8.38299 20.9054C10.5832 20.4346 12.3851 19.0484 13.3229 17.1051C13.6592 16.4082 13.8611 15.7046 13.9546 14.9033C14.0151 14.3849 14.0151 6.62184 13.9546 6.10338C13.7928 4.71677 13.2604 3.49214 12.3557 2.4258C11.3602 1.25241 9.97538 0.439779 8.40368 0.106793C8.08387 0.0390703 7.78791 0.0147641 7.15345 0.00428583C6.69627 -0.00327228 6.2533 -0.000566808 6.16908 0.010298ZM6.51908 1.63345V2.34L6.35502 2.41627C6.12954 2.5211 5.86026 2.79546 5.73054 3.05261L5.62222 3.26733V5.00656V6.74578L5.77333 7.01942C5.91678 7.27914 6.225 7.56498 6.44252 7.63996C6.51138 7.66371 6.51908 7.73989 6.51908 8.39779V9.12916H3.71911H0.91914V7.93129C0.91914 6.56653 0.961708 6.03167 1.12069 5.39885C1.65719 3.26355 3.32449 1.62142 5.50707 1.07861C5.95471 0.967258 6.09283 0.943596 6.35502 0.933333L6.51908 0.926891V1.63345ZM8.10321 0.990319C9.28327 1.19233 10.4036 1.7734 11.2895 2.64297C12.3051 3.63978 12.8893 4.85926 13.0359 6.28869C13.061 6.53329 13.0815 7.27244 13.0815 7.93129V9.12916H10.2815H7.48157V8.40114V7.67311L7.62546 7.60607C7.87755 7.48867 8.07411 7.29675 8.22842 7.0174L8.37844 6.74578V5.00656V3.26733L8.22842 2.99571C8.07411 2.71636 7.87755 2.52445 7.62546 2.40704L7.48157 2.34V1.63345V0.926891H7.60709C7.67612 0.926891 7.89938 0.955449 8.10321 0.990319ZM7.19816 3.22769C7.47164 3.35511 7.48157 3.41738 7.48157 5.00656C7.48157 6.59574 7.47164 6.658 7.19816 6.78542C7.01739 6.86959 6.98326 6.86959 6.80249 6.78542C6.52901 6.658 6.51908 6.59574 6.51908 5.00656C6.51908 3.42536 6.52954 3.35803 6.79562 3.22924C6.97106 3.14434 7.01874 3.14412 7.19816 3.22769ZM13.0588 12.4144C13.0579 15.0445 13.0476 15.1674 12.7542 16.0281C11.8339 18.728 9.13163 20.4169 6.27846 20.0754C3.94604 19.7963 1.99595 18.2278 1.24656 16.0281C0.961096 15.1903 0.953658 15.1072 0.931784 12.5082C0.92089 11.2134 0.922859 10.1264 0.936115 10.0924C0.956983 10.0391 1.78315 10.0321 7.00995 10.0415L13.0596 10.0525L13.0588 12.4144Z" fill="black"/>
</svg>
