<svg width="15" height="15" viewBox="0 0 15 15" fill="none" xmlns="http://www.w3.org/2000/svg">
<path fill-rule="evenodd" clip-rule="evenodd" d="M6.12994 0.011057C4.75714 0.0854087 3.42854 0.728968 2.41846 1.80882C1.59849 2.68549 1.04012 3.81257 0.833984 5.00723C0.367249 7.71206 1.60333 10.3794 3.90448 11.6331C5.16729 12.3212 6.66928 12.4772 8.04737 12.0637C8.53859 11.9162 9.23919 11.5778 9.59579 11.3156L9.76023 11.1948L11.4432 12.9873C12.9633 14.6063 13.1438 14.7889 13.3071 14.8731C14.1565 15.3112 15.1191 14.5507 14.9509 13.5745C14.8841 13.187 14.8884 13.1923 13.0604 11.2382L11.3682 9.42917L11.596 8.94876C11.9788 8.14139 12.1563 7.46747 12.224 6.56493C12.3466 4.9288 11.7952 3.23834 10.7364 2.00487C10.1992 1.3791 9.61312 0.920468 8.89786 0.566167C8.46979 0.354146 8.31137 0.292939 7.9144 0.1862C7.31837 0.0259571 6.79789 -0.0251077 6.12994 0.011057ZM7.11749 2.04372C8.66138 2.31355 9.91454 3.56695 10.2706 5.19748C10.5697 6.56725 10.2004 8.00242 9.28823 9.01494C8.53664 9.84922 7.55677 10.2977 6.48624 10.2973C5.45265 10.2969 4.47951 9.8632 3.74133 9.074C3.19506 8.48998 2.84191 7.78828 2.67597 6.95715C2.58918 6.52249 2.58971 5.77213 2.67708 5.33405C2.90472 4.19308 3.50048 3.26359 4.40521 2.63791C4.86599 2.31923 5.36099 2.12622 5.99085 2.0196C6.17451 1.98852 6.8891 2.0038 7.11749 2.04372Z" fill="black"/>
</svg>
