<svg width="13" height="13" viewBox="0 0 13 13" fill="none" xmlns="http://www.w3.org/2000/svg">
<path fill-rule="evenodd" clip-rule="evenodd" d="M5.91695 0.263978C4.66076 0.375731 3.49974 0.796242 2.48179 1.50815C1.98607 1.85483 1.3423 2.50636 0.970271 3.03784C0.809602 3.26738 0.496841 3.84902 0.3848 4.12661C0.259528 4.437 0.126011 4.91133 0.0603079 5.27939C-0.0201026 5.72987 -0.0201026 6.58517 0.0603079 7.03565C0.174002 7.67248 0.353858 8.1873 0.661708 8.75725C0.998058 9.37992 1.34779 9.8213 1.90784 10.3299C2.46792 10.8385 2.95394 11.1561 3.6396 11.4616C4.26721 11.7411 4.8341 11.9045 5.53535 12.0077C6.0314 12.0808 6.97323 12.0808 7.46928 12.0077C8.17053 11.9045 8.73742 11.7411 9.36503 11.4616C10.0507 11.1561 10.5367 10.8385 11.0968 10.3299C11.6568 9.8213 12.0066 9.37992 12.3429 8.75725C12.5663 8.34365 12.6787 8.07259 12.799 7.65693C12.9593 7.10338 13 6.79994 13 6.15752C13 5.5151 12.9593 5.21165 12.799 4.65811C12.6787 4.24245 12.5663 3.97138 12.3429 3.55778C12.0066 2.93512 11.6568 2.49374 11.0968 1.98512C10.5367 1.47652 10.0507 1.15891 9.36503 0.853459C8.73804 0.574143 8.15992 0.407506 7.482 0.310657C7.10797 0.25723 6.27276 0.232319 5.91695 0.263978ZM7.10766 1.19075C8.34848 1.31487 9.48435 1.81444 10.3845 2.63193C11.4407 3.59108 11.9987 4.80984 11.9987 6.15752C11.9987 7.5052 11.4407 8.72395 10.3845 9.68311C9.32837 10.6423 7.98632 11.149 6.50232 11.149C5.01831 11.149 3.67627 10.6423 2.62009 9.68311C1.56391 8.72395 1.0059 7.5052 1.0059 6.15752C1.0059 4.80984 1.56391 3.59108 2.62009 2.63193C3.50794 1.82564 4.65567 1.3164 5.86616 1.19168C6.14622 1.16284 6.8235 1.16233 7.10766 1.19075ZM6.28307 3.03583C6.16085 3.08623 6.0613 3.19625 6.0199 3.3267C5.99878 3.3933 5.99275 3.8228 5.99835 4.86343C6.00591 6.2702 6.00749 6.31013 6.05863 6.40016C6.10118 6.47506 6.30409 6.62549 7.12738 7.19265C7.68631 7.57767 8.19468 7.92051 8.25712 7.9545C8.68259 8.18619 9.18551 7.77386 8.97016 7.3699C8.9186 7.27316 8.81628 7.19651 7.96202 6.61456L7.01124 5.96692V4.67914C7.01124 3.77787 7.00254 3.36778 6.98229 3.31281C6.91012 3.1171 6.72355 2.99264 6.50232 2.99264C6.43934 2.99264 6.34068 3.01207 6.28307 3.03583Z" fill="black"/>
</svg>
