<svg width="20" height="17" viewBox="0 0 20 17" fill="none" xmlns="http://www.w3.org/2000/svg">
<path fill-rule="evenodd" clip-rule="evenodd" d="M10.0078 0.0315259C8.79144 0.16086 7.35826 0.623103 6.34527 1.21273C4.76085 2.135 3.38712 3.62212 2.74643 5.10863C2.64827 5.33645 2.55494 5.52309 2.53898 5.52344C2.52307 5.5238 2.36715 5.25977 2.19245 4.93679C2.01776 4.6138 1.82368 4.28449 1.76118 4.20506C1.49888 3.87175 0.927724 3.76613 0.524933 3.97644C0.213408 4.13911 0.0426534 4.39924 0.0191917 4.74677L0 5.03141L1.07239 7.01562C1.66222 8.10694 2.19297 9.05394 2.25186 9.12007C2.4952 9.39319 3.0084 9.50182 3.37389 9.3576C3.46708 9.32081 4.32686 8.86876 5.28452 8.35306C7.19524 7.32411 7.37219 7.20014 7.46782 6.82357C7.64693 6.11843 6.9161 5.47367 6.20361 5.70827C6.11797 5.7365 5.65029 5.97461 5.1643 6.23749C4.63022 6.52638 4.28064 6.6914 4.28064 6.65465C4.28064 6.54979 4.54815 5.90307 4.74279 5.53741C5.08434 4.8957 5.48784 4.37796 6.08419 3.81626C7.10388 2.85578 8.22005 2.28942 9.67796 1.99268C9.98827 1.92952 10.2819 1.91175 11.0142 1.91175C11.8253 1.91175 12.0187 1.92571 12.4397 2.01475C14.5915 2.46986 16.3081 3.72894 17.282 5.56657C18.2507 7.39436 18.2489 9.59938 17.2771 11.4258C16.2971 13.2677 14.5929 14.5173 12.4397 14.9726C12.0187 15.0617 11.8253 15.0756 11.0142 15.0756C9.96589 15.0756 9.6447 15.0302 8.78731 14.7608C7.30059 14.2936 6.02821 13.3655 5.14797 12.1064C4.71074 11.4809 4.49719 11.3304 4.04743 11.3304C3.80911 11.3304 3.38909 11.5408 3.26001 11.7249C2.98067 12.1231 3.00873 12.4536 3.36774 12.9937C5.19654 15.7452 8.49883 17.2812 11.889 16.9572C13.94 16.7613 15.7461 15.9711 17.244 14.6142C19.0303 12.9962 20 10.8427 20 8.4937C20 6.6836 19.4372 5.02552 18.3108 3.51695C17.936 3.01503 16.9244 2.04432 16.3869 1.67076C15.2352 0.870381 13.9301 0.34121 12.5392 0.110642C11.9126 0.00679357 10.6203 -0.0336287 10.0078 0.0315259ZM10.7672 3.79454C10.4985 3.85473 10.26 4.03925 10.1284 4.28874L10.0053 4.52206L10.0063 6.60758C10.0073 8.55105 10.0133 8.70525 10.0951 8.87044C10.1532 8.98763 10.7454 9.57575 11.842 10.605C13.6459 12.2982 13.6335 12.2893 14.118 12.2513C14.7916 12.1986 15.21 11.4769 14.896 10.9093C14.8404 10.8089 14.1962 10.1651 13.4104 9.42475L12.023 8.11753V6.39718C12.023 5.22666 12.0054 4.61079 11.9679 4.47011C11.8922 4.18613 11.5625 3.87472 11.2619 3.80323C11.0196 3.74561 10.9881 3.74503 10.7672 3.79454Z" fill="#FF008A"/>
</svg>
