<svg width="36" height="46" viewBox="0 0 36 46" fill="none" xmlns="http://www.w3.org/2000/svg">
<path fill-rule="evenodd" clip-rule="evenodd" d="M0.0847082 19.848C0.287685 20.4238 0.536049 20.7624 1.47734 21.7468C2.55861 22.8775 2.93976 23.1013 3.78359 23.1013C4.83335 23.1013 4.68534 23.2321 9.90167 17.6991L14.6225 12.6917L14.6225 28.3118C14.6225 43.7931 14.6241 43.9361 14.7946 44.4201C15.0299 45.0881 15.6256 45.6758 16.2685 45.8743C16.6493 45.9918 17.0353 46.0158 18.1615 45.9914C19.3906 45.9648 19.6279 45.9355 19.9699 45.7681C20.4442 45.5361 20.9609 45.0066 21.188 44.5201C21.3512 44.1706 21.3554 43.8467 21.3969 28.4029L21.4392 12.6424L26.1785 17.6761C31.4064 23.2289 31.269 23.1071 32.2979 23.1007C33.1081 23.0957 33.5458 22.8209 34.6608 21.6173C35.824 20.3616 36.0002 20.0326 36 19.118C35.9998 18.5611 35.9606 18.3651 35.775 17.9939C35.4724 17.3884 19.4903 0.433456 18.9835 0.180122C18.4715 -0.0758171 17.4933 -0.0560303 16.9835 0.220505C16.4454 0.512417 0.405135 17.5642 0.186408 18.0769C-0.0112334 18.54 -0.0623798 19.4307 0.0847082 19.848Z"/>
</svg>
